<svg data-v-fde0c5aa="" xmlns="http://www.w3.org/2000/svg" viewBox="0 0 300 300" class="iconAboveSlogan"><!----><defs data-v-fde0c5aa=""><!----></defs><rect data-v-fde0c5aa="" fill="#0B173D" x="0" y="0" width="300px" height="300px" class="logo-background-square"></rect><defs data-v-fde0c5aa=""><!----></defs><g data-v-fde0c5aa="" id="20daa89d-d7ce-4e78-bda8-426414c6eac0" fill="#D1A103" transform="matrix(2.9878187455143776,0,0,2.9878187455143776,16.5042518397957,147.9505260084271)"><path d="M9.36 3.82L5.92 8.65L2.49 3.82L1.17 3.82L1.17 13.15L2.64 13.15L2.64 6.31L5.94 10.76L9.22 6.31L9.22 13.15L10.69 13.15L10.69 3.82ZM13.58 5.26C14.09 5.26 14.50 4.86 14.50 4.36C14.50 3.86 14.09 3.46 13.58 3.46C13.08 3.46 12.67 3.86 12.67 4.36C12.67 4.86 13.08 5.26 13.58 5.26ZM12.91 13.15L14.29 13.15L14.29 6.53L12.91 6.53ZM19.34 13.34C20.26 13.34 21 13.07 21.61 12.60L20.80 11.58C20.43 11.93 19.92 12.13 19.37 12.13C18.07 12.13 17.30 11.14 17.30 9.84C17.30 8.55 18.07 7.57 19.37 7.57C19.92 7.57 20.43 7.77 20.80 8.12L21.61 7.10C21 6.64 20.26 6.36 19.34 6.36C17.28 6.36 15.85 7.89 15.85 9.84C15.85 11.81 17.28 13.34 19.34 13.34ZM26.19 6.36C25.26 6.36 24.54 6.75 24.14 7.35L24.14 3.24L22.72 3.24L22.72 13.15L24.14 13.15L24.14 9.42C24.14 8.02 25.00 7.57 25.80 7.57C26.82 7.57 27.26 8.30 27.26 9.38L27.26 13.15L28.67 13.15L28.67 9.06C28.67 7 27.34 6.36 26.19 6.36ZM35.57 6.53L35.38 7.45C34.87 6.78 34.10 6.36 33.08 6.36C31.35 6.36 29.98 7.69 29.98 9.84C29.98 12.00 31.35 13.31 33.08 13.31C34.08 13.31 34.85 12.89 35.36 12.22L35.57 13.15L36.74 13.15L36.74 6.53ZM33.41 12.12C32.21 12.12 31.43 11.14 31.43 9.84C31.43 8.55 32.21 7.55 33.41 7.55C34.65 7.55 35.45 8.55 35.45 9.84C35.45 11.14 34.65 12.12 33.41 12.12ZM44.79 9.70C44.79 7.73 43.46 6.36 41.53 6.36C39.55 6.36 38.12 7.89 38.12 9.84C38.12 11.80 39.54 13.31 41.71 13.31C42.85 13.31 43.81 12.92 44.41 12.25L43.43 11.46C43.01 11.94 42.44 12.19 41.69 12.19C40.45 12.19 39.71 11.33 39.61 10.15L44.79 10.15ZM41.53 7.50C42.57 7.50 43.24 8.12 43.39 9.17L39.67 9.17C39.87 8.17 40.56 7.50 41.53 7.50ZM46.24 13.15L47.66 13.15L47.66 3.24L46.24 3.24ZM58.55 13.15L60.36 13.15L57.28 9.07C58.51 8.79 59.59 7.95 59.59 6.52C59.59 4.86 58.17 3.82 56.44 3.82L53.46 3.82L53.46 13.15L54.95 13.15L54.95 9.17L55.71 9.17ZM54.95 5.00L56.03 5.00C57.36 5.00 58.04 5.57 58.04 6.53C58.04 7.50 57.36 8.01 56.15 8.01L54.95 8.01ZM67.42 9.70C67.42 7.73 66.09 6.36 64.17 6.36C62.18 6.36 60.75 7.89 60.75 9.84C60.75 11.80 62.17 13.31 64.34 13.31C65.48 13.31 66.44 12.92 67.04 12.25L66.06 11.46C65.64 11.94 65.07 12.19 64.33 12.19C63.09 12.19 62.34 11.33 62.24 10.15L67.42 10.15ZM64.17 7.50C65.20 7.50 65.87 8.12 66.02 9.17L62.30 9.17C62.50 8.17 63.19 7.50 64.17 7.50ZM73.37 6.53L71.41 11.35L69.46 6.53L67.96 6.53L70.71 12.99L69.29 16.22L70.74 16.22L74.89 6.53ZM82.06 9.70C82.06 7.73 80.73 6.36 78.81 6.36C76.82 6.36 75.40 7.89 75.40 9.84C75.40 11.80 76.81 13.31 78.98 13.31C80.12 13.31 81.08 12.92 81.68 12.25L80.70 11.46C80.28 11.94 79.71 12.19 78.97 12.19C77.73 12.19 76.99 11.33 76.88 10.15L82.06 10.15ZM78.81 7.50C79.84 7.50 80.51 8.12 80.66 9.17L76.94 9.17C77.15 8.17 77.83 7.50 78.81 7.50ZM82.82 12.22C83.30 12.88 84.31 13.34 85.55 13.34C87.18 13.34 88.19 12.54 88.19 11.35C88.19 9.00 84.69 9.79 84.69 8.36C84.69 7.86 85.06 7.53 85.84 7.51C86.32 7.50 86.87 7.73 87.27 8.11L88.04 7.22C87.60 6.75 86.76 6.36 85.78 6.36C84.20 6.36 83.24 7.19 83.24 8.41C83.24 10.82 86.68 10.09 86.68 11.38C86.68 11.87 86.27 12.21 85.46 12.21C84.80 12.21 84.20 11.97 83.72 11.35Z"></path></g><defs data-v-fde0c5aa=""><!----></defs><g data-v-fde0c5aa="" id="0bd28404-0133-4436-83c2-d067d6774b27" stroke="none" fill="#D1A103" transform="matrix(2.3052085326937193,0,0,2.3052085326937193,113.11666265249367,76.36230955227678)"><path d="M31.107 27.446H.893l4.262-8.483.893.449-3.534 7.034h26.972l-3.534-7.034.893-.449z"></path><path d="M6.823 22.768h18.583v1H6.823zM5 4.554v15.011h22V4.554H5zm8.833 6.008L9.84 12.088l3.993 1.583v1.611L8.11 12.795v-1.378l5.723-2.477v1.622zm1.708 5.815h-1.179l2.067-8.633h1.202l-2.09 8.633zm8.349-3.582l-5.729 2.495v-1.612l3.998-1.572-3.998-1.554V8.951l5.729 2.477v1.367z"></path></g><defs data-v-fde0c5aa=""><!----></defs><g data-v-fde0c5aa="" id="af913212-6fea-4db0-81a7-f6217d9aaf24" fill="#D1A103" transform="matrix(0.7088331358546925,0,0,0.7088331358546925,51.699018559864165,204.92439520375424)"><path d="M7.83 3.22L7.83 2.21L1.13 2.21L1.13 11.48L2.18 11.48L2.18 7.46L7.21 7.46L7.21 6.44L2.18 6.44L2.18 3.22ZM17.35 7.92L20.57 7.92L22.81 11.48L24.05 11.48L21.62 7.74C22.65 7.50 23.86 6.90 23.86 5.11C23.86 3.35 22.64 2.21 20.73 2.21L16.30 2.21L16.30 11.48L17.35 11.48ZM17.35 3.21L20.61 3.21C21.92 3.21 22.81 3.93 22.81 5.11C22.81 6.55 21.55 6.93 20.55 6.93L17.35 6.93ZM36.78 2.10C33.96 2.10 32.07 4.21 32.07 6.85C32.07 9.48 33.96 11.59 36.78 11.59C39.59 11.59 41.48 9.48 41.48 6.85C41.48 4.21 39.59 2.10 36.78 2.10ZM36.78 10.57C34.52 10.57 33.12 8.93 33.12 6.85C33.12 4.76 34.52 3.12 36.78 3.12C39.03 3.12 40.43 4.76 40.43 6.85C40.43 8.93 39.03 10.57 36.78 10.57ZM57.11 2.21L57.11 10.01L51.38 2.21L50.16 2.21L50.16 11.48L51.21 11.48L51.21 3.65L56.94 11.48L58.16 11.48L58.16 2.21ZM74.00 2.21L66.49 2.21L66.49 3.22L69.72 3.22L69.72 11.48L70.77 11.48L70.77 3.22L74.00 3.22ZM89.15 3.22L89.15 2.21L82.33 2.21L82.33 11.48L89.15 11.48L89.15 10.47L83.38 10.47L83.38 7.35L88.54 7.35L88.54 6.33L83.38 6.33L83.38 3.22ZM104.79 2.21L104.79 10.01L99.06 2.21L97.85 2.21L97.85 11.48L98.90 11.48L98.90 3.65L104.62 11.48L105.84 11.48L105.84 2.21ZM119.01 2.21L115.11 2.21L115.11 11.48L119.01 11.48C121.23 11.48 123.27 9.74 123.27 6.85C123.27 3.95 121.23 2.21 119.01 2.21ZM118.97 10.49L116.16 10.49L116.16 3.21L118.97 3.21C120.95 3.21 122.22 4.86 122.22 6.85C122.22 8.83 120.95 10.49 118.97 10.49ZM145.85 2.21L141.95 2.21L141.95 11.48L145.85 11.48C148.06 11.48 150.11 9.74 150.11 6.85C150.11 3.95 148.06 2.21 145.85 2.21ZM145.81 10.49L143.00 10.49L143.00 3.21L145.81 3.21C147.78 3.21 149.06 4.86 149.06 6.85C149.06 8.83 147.78 10.49 145.81 10.49ZM165.62 3.22L165.62 2.21L158.80 2.21L158.80 11.48L165.62 11.48L165.62 10.47L159.85 10.47L159.85 7.35L165.00 7.35L165.00 6.33L159.85 6.33L159.85 3.22ZM180.78 2.21L177.58 10.29L174.37 2.21L173.22 2.21L176.97 11.48L178.18 11.48L181.93 2.21ZM196.92 3.22L196.92 2.21L190.11 2.21L190.11 11.48L196.92 11.48L196.92 10.47L191.16 10.47L191.16 7.35L196.31 7.35L196.31 6.33L191.16 6.33L191.16 3.22ZM205.62 2.21L205.62 11.48L211.72 11.48L211.72 10.47L206.67 10.47L206.67 2.21ZM223.79 2.10C220.98 2.10 219.09 4.21 219.09 6.85C219.09 9.48 220.98 11.59 223.79 11.59C226.60 11.59 228.49 9.48 228.49 6.85C228.49 4.21 226.60 2.10 223.79 2.10ZM223.79 10.57C221.54 10.57 220.14 8.93 220.14 6.85C220.14 4.76 221.54 3.12 223.79 3.12C226.04 3.12 227.44 4.76 227.44 6.85C227.44 8.93 226.04 10.57 223.79 10.57ZM238.22 8.18L241.35 8.18C243.32 8.18 244.54 7.03 244.54 5.19C244.54 3.37 243.32 2.21 241.35 2.21L237.17 2.21L237.17 11.48L238.22 11.48ZM241.28 3.21C242.73 3.21 243.49 3.96 243.49 5.19C243.49 6.44 242.73 7.20 241.28 7.20L238.22 7.20L238.22 3.21ZM259.78 3.22L259.78 2.21L252.97 2.21L252.97 11.48L259.78 11.48L259.78 10.47L254.02 10.47L254.02 7.35L259.17 7.35L259.17 6.33L254.02 6.33L254.02 3.22ZM269.53 7.92L272.75 7.92L274.99 11.48L276.23 11.48L273.80 7.74C274.83 7.50 276.04 6.90 276.04 5.11C276.04 3.35 274.82 2.21 272.92 2.21L268.48 2.21L268.48 11.48L269.53 11.48ZM269.53 3.21L272.79 3.21C274.11 3.21 274.99 3.93 274.99 5.11C274.99 6.55 273.73 6.93 272.73 6.93L269.53 6.93Z"></path></g></svg>